<svg width="1776" height="809" viewBox="0 0 1776 809" fill="none" xmlns="http://www.w3.org/2000/svg">
<path opacity="0.08" d="M47.5 8H7.5V48M47.5 8V48M47.5 8H87.5M47.5 48H7.5M47.5 48V88M47.5 48H87.5M7.5 48V88M47.5 88H7.5M47.5 88V128M47.5 88H87.5M7.5 88V128M47.5 128H7.5M47.5 128V168M47.5 128H87.5M7.5 128V168M47.5 168H7.5M47.5 168V208M47.5 168H87.5M7.5 168V208M47.5 208H7.5M47.5 208V248M47.5 208H87.5M7.5 208V248M47.5 248H7.5M47.5 248V288M47.5 248H87.5M7.5 248V288M47.5 288H7.5M47.5 288V328M47.5 288H87.5M7.5 288V328M47.5 328H7.5M47.5 328V368M47.5 328H87.5M7.5 328V368M47.5 368H7.5M47.5 368V408M47.5 368H87.5M7.5 368V408M47.5 408H7.5M47.5 408V448M47.5 408H87.5M7.5 408V448M47.5 448H7.5M47.5 448V488M47.5 448H87.5M7.5 448V488M47.5 488H7.5M47.5 488V528M47.5 488H87.5M7.5 488V528M47.5 528H7.5M47.5 528V568M47.5 528H87.5M7.5 528V568M47.5 568H7.5M47.5 568V608M47.5 568H87.5M7.5 568V608M47.5 608H7.5M47.5 608V648M47.5 608H87.5M7.5 608V648M47.5 648H7.5M47.5 648V688M47.5 648H87.5M7.5 648V688M47.5 688H7.5M47.5 688V728M47.5 688H87.5M7.5 688V728M47.5 728H7.5M47.5 728V768M47.5 728H87.5M7.5 728V768M47.5 768H7.5M47.5 768V808M47.5 768H87.5M7.5 768V808H47.5M47.5 808H87.5M87.5 8V48M87.5 8H127.5M87.5 48V88M87.5 48H127.5M87.5 88V128M87.5 88H127.5M87.5 128V168M87.5 128H127.5M87.5 168V208M87.5 168H127.5M87.5 208V248M87.5 208H127.5M87.5 248V288M87.5 248H127.5M87.5 288V328M87.5 288H127.5M87.5 328V368M87.5 328H127.5M87.5 368V408M87.5 368H127.5M87.5 408V448M87.5 408H127.5M87.5 448V488M87.5 448H127.5M87.5 488V528M87.5 488H127.5M87.5 528V568M87.5 528H127.5M87.5 568V608M87.5 568H127.5M87.5 608V648M87.5 608H127.5M87.5 648V688M87.5 648H127.5M87.5 688V728M87.5 688H127.5M87.5 728V768M87.5 728H127.5M87.5 768V808M87.5 768H127.5M87.5 808H127.5M127.5 8V48M127.5 8H167.5M127.5 48V88M127.5 48H167.5M127.5 88V128M127.5 88H167.5M127.5 128V168M127.5 128H167.5M127.5 168V208M127.5 168H167.5M127.5 208V248M127.5 208H167.5M127.5 248V288M127.5 248H167.5M127.5 288V328M127.5 288H167.5M127.5 328V368M127.5 328H167.5M127.5 368V408M127.5 368H167.5M127.5 408V448M127.5 408H167.5M127.5 448V488M127.5 448H167.5M127.5 488V528M127.5 488H167.5M127.5 528V568M127.5 528H167.5M127.5 568V608M127.5 568H167.5M127.5 608V648M127.5 608H167.5M127.5 648V688M127.5 648H167.5M127.5 688V728M127.5 688H167.5M127.5 728V768M127.5 728H167.5M127.5 768V808M127.5 768H167.5M127.5 808H167.5M167.5 8V48M167.5 8H207.5M167.5 48V88M167.5 48H207.5M167.5 88V128M167.5 88H207.5M167.5 128V168M167.5 128H207.5M167.5 168V208M167.5 168H207.5M167.5 208V248M167.5 208H207.5M167.5 248V288M167.5 248H207.5M167.5 288V328M167.5 288H207.5M167.5 328V368M167.5 328H207.5M167.5 368V408M167.5 368H207.5M167.5 408V448M167.5 408H207.5M167.5 448V488M167.5 448H207.5M167.5 488V528M167.5 488H207.5M167.5 528V568M167.5 528H207.5M167.5 568V608M167.5 568H207.5M167.5 608V648M167.5 608H207.5M167.5 648V688M167.5 648H207.5M167.5 688V728M167.5 688H207.5M167.5 728V768M167.5 728H207.5M167.5 768V808M167.5 768H207.5M167.5 808H207.5M207.5 8V48M207.5 8H247.5M207.5 48V88M207.5 48H247.5M207.5 88V128M207.5 88H247.5M207.5 128V168M207.5 128H247.5M207.5 168V208M207.5 168H247.5M207.5 208V248M207.5 208H247.5M207.5 248V288M207.5 248H247.5M207.5 288V328M207.5 288H247.5M207.5 328V368M207.5 328H247.5M207.5 368V408M207.5 368H247.5M207.5 408V448M207.5 408H247.5M207.5 448V488M207.5 448H247.5M207.5 488V528M207.5 488H247.5M207.5 528V568M207.5 528H247.5M207.5 568V608M207.5 568H247.5M207.5 608V648M207.5 608H247.5M207.5 648V688M207.5 648H247.5M207.5 688V728M207.5 688H247.5M207.5 728V768M207.5 728H247.5M207.5 768V808M207.5 768H247.5M207.5 808H247.5M247.5 8V48M247.5 8H287.5M247.5 48V88M247.5 48H287.5M247.5 88V128M247.5 88H287.5M247.5 128V168M247.5 128H287.5M247.5 168V208M247.5 168H287.5M247.5 208V248M247.5 208H287.5M247.5 248V288M247.5 248H287.5M247.5 288V328M247.5 288H287.5M247.5 328V368M247.5 328H287.5M247.5 368V408M247.5 368H287.5M247.5 408V448M247.5 408H287.5M247.5 448V488M247.5 448H287.5M247.5 488V528M247.5 488H287.5M247.5 528V568M247.5 528H287.5M247.5 568V608M247.5 568H287.5M247.5 608V648M247.5 608H287.5M247.5 648V688M247.5 648H287.5M247.5 688V728M247.5 688H287.5M247.5 728V768M247.5 728H287.5M247.5 768V808M247.5 768H287.5M247.5 808H287.5M287.5 8V48M287.5 8H327.5M287.5 48V88M287.5 48H327.5M287.5 88V128M287.5 88H327.5M287.5 128V168M287.5 128H327.5M287.5 168V208M287.5 168H327.5M287.5 208V248M287.5 208H327.5M287.5 248V288M287.5 248H327.5M287.5 288H327.5M287.5 288V328M287.5 328V368M287.5 328H327.5M287.5 368V408M287.5 368H327.5M287.5 408V448M287.5 408H327.5M287.5 448V488M287.5 448H327.5M287.5 488V528M287.5 488H327.5M287.5 528V568M287.5 528H327.5M287.5 568V608M287.5 568H327.5M287.5 608V648M287.5 608H327.5M287.5 648V688M287.5 648H327.5M287.5 688V728M287.5 688H327.5M287.5 728V768M287.5 728H327.5M287.5 768V808M287.5 768H327.5M287.5 808H327.5M327.5 8V48M327.5 8H367.5M327.5 48V88M327.5 48H367.5M327.5 88V128M327.5 88H367.5M327.5 128V168M327.5 128H367.5M327.5 168V208M327.5 168H367.5M327.5 208V248M327.5 208H367.5M327.5 248V288M327.5 248H367.5M327.5 288V328M327.5 288H367.5M327.5 328V368M327.5 328H367.5M327.5 368V408M327.5 368H367.5M327.5 408V448M327.5 408H367.5M327.5 448V488M327.5 448H367.5M327.5 488V528M327.5 488H367.5M327.5 528V568M327.5 528C327.5 528 351.879 528 367.5 528M327.5 568V608M327.5 568H367.5M327.5 608V648M327.5 608H367.5M327.5 648V688M327.5 648H367.5M327.5 688V728M327.5 688H367.5M327.5 728V768M327.5 728H367.5M327.5 768V808M327.5 768H367.5M327.5 808H367.5M367.5 8V48M367.5 8H407.5M367.5 48V88M367.5 48H407.5M367.5 88V128M367.5 88H407.5M367.5 128V168M367.5 128H407.5M367.5 168V208M367.5 168H407.5M367.5 208V248M367.5 208H407.5M367.5 248V288M367.5 248H407.5M367.5 288V328M367.5 288H407.5M367.5 328V368M367.5 328H407.5M367.5 368V408M367.5 368H407.5M367.5 408V448M367.5 408H407.5M367.5 448V488M367.5 448H407.5M367.5 488C367.5 488 367.5 512.379 367.5 528M367.5 488H407.5M367.5 528C367.5 543.621 367.5 568 367.5 568M367.5 528C383.121 528 407.5 528 407.5 528M367.5 568V608M367.5 568H407.5M367.5 608V648M367.5 608H407.5M367.5 648V688M367.5 648H407.5M367.5 688V728M367.5 688H407.5M367.5 728V768M367.5 728H407.5M367.5 768V808M367.5 768H407.5M367.5 808H407.5M407.5 8V48M407.5 8H447.5M407.5 48V88M407.5 48H447.5M407.5 88V128M407.5 88H447.5M407.5 128V168M407.5 128H447.5M407.5 168V208M407.5 168H447.5M407.5 208V248M407.5 208H447.5M407.5 248V288M407.5 248H447.5M407.5 288V328M407.5 288H447.5M407.5 328V368M407.5 328H447.5M407.5 368V408M407.5 368H447.5M407.5 408V448M407.5 408H447.5M407.5 448V488M407.5 448H447.5M407.5 488V528M407.5 488H447.5M407.5 528V568M407.5 528H447.5M407.5 568V608M407.5 568H447.5M407.5 608V648M407.5 608H447.5M407.5 648V688M407.5 648H447.5M407.5 688V728M407.5 688H447.5M407.5 728V768M407.5 728H447.5M407.5 768V808M407.5 768H447.5M407.5 808H447.5M447.5 8V48M447.5 8H487.5M447.5 48V88M447.5 48H487.5M447.5 88V128M447.5 88H487.5M447.5 128V168M447.5 128H487.5M447.5 168V208M447.5 168H1327.5M447.5 208V248M447.5 208H1327.5M447.5 248V288M447.5 248H487.5M447.5 288V328M447.5 288H487.5M447.5 328V368M447.5 328H487.5M447.5 368V408M447.5 368H487.5M447.5 408V448M447.5 408H487.5M447.5 448V488M447.5 448H487.5M447.5 488V528M447.5 488H487.5M447.5 528V568M447.5 528H487.5M447.5 568V608M447.5 568H487.5M447.5 608V648M447.5 608H487.5M447.5 648V688M447.5 648H487.5M447.5 688V728M447.5 688H487.5M447.5 728V768M447.5 728H487.5M447.5 768V808M447.5 768H487.5M447.5 808H487.5M487.5 8V48M487.5 8H527.5M487.5 48V88M487.5 48H527.5M487.5 88V128M487.5 88H527.5M487.5 128H527.5M487.5 128V248M487.5 248V288M487.5 248H527.5M487.5 288V328M487.5 288H527.5M487.5 328V368M487.5 328H527.5M487.5 368V408M487.5 368H527.5M487.5 408V448M487.5 408H527.5M487.5 448V488M487.5 448H527.5M487.5 488V528M487.5 488H527.5M487.5 528V568M487.5 528H527.5M487.5 568V608M487.5 568H527.5M487.5 608V648M487.5 608H527.5M487.5 648V688M487.5 648H527.5M487.5 688V728M487.5 688H527.5M487.5 728V768M487.5 728H527.5M487.5 768V808M487.5 768H527.5M487.5 808H527.5M527.5 8V48M527.5 8H567.5M527.5 48V88M527.5 48H567.5M527.5 88V128M527.5 88H567.5M527.5 128H567.5M527.5 128V248M527.5 248V288M527.5 248H567.5M527.5 288V328M527.5 288H567.5M527.5 328V368M527.5 328H567.5M527.5 368V408M527.5 368H567.5M527.5 408V448M527.5 408H567.5M527.5 448V488M527.5 448H567.5M527.5 488V528M527.5 488H567.5M527.5 528V568M527.5 528H567.5M527.5 568V608M527.5 568H567.5M527.5 608V648M527.5 608H567.5M527.5 648V688M527.5 648H567.5M527.5 688V728M527.5 688H567.5M527.5 728V768M527.5 728H567.5M527.5 768V808M527.5 768H567.5M527.5 808H567.5M567.5 8V48M567.5 8H607.5M567.5 48V88M567.5 48H607.5M567.5 88V128M567.5 88H607.5M567.5 128H607.5M567.5 128V248M567.5 248V288M567.5 248H1207.5M567.5 288V328M567.5 288H1207.5M567.5 328V368M567.5 328H607.5M567.5 368V408M567.5 368H607.5M567.5 408V448M567.5 408H607.5M567.5 448V488M567.5 448H607.5M567.5 488V528M567.5 488H607.5M567.5 528V568M567.5 528H607.5M567.5 568V608M567.5 568H607.5M567.5 608V648M567.5 608H607.5M567.5 648V688M567.5 648H607.5M567.5 688V728M567.5 688H607.5M567.5 728V768M567.5 728H607.5M567.5 768V808M567.5 768H607.5M567.5 808H607.5M607.5 8V48M607.5 8H647.5M607.5 48V88M607.5 48H647.5M607.5 88V128M607.5 88H647.5M607.5 128H647.5M607.5 128V328M607.5 328V368M607.5 328H647.5M607.5 368V408M607.5 368H647.5M607.5 408V448M607.5 408H647.5M607.5 448V488M607.5 448H647.5M607.5 488V528M607.5 488H647.5M607.5 528V568M607.5 528H647.5M607.5 568V608M607.5 568H647.5M607.5 608V648M607.5 608H647.5M607.5 648V688M607.5 648H647.5M607.5 688V728M607.5 688H647.5M607.5 728V768M607.5 728H647.5M607.5 768V808M607.5 768H647.5M607.5 808H647.5M647.5 8V48M647.5 8H687.5M647.5 48V88M647.5 48H687.5M647.5 88V128M647.5 88H687.5M647.5 128H687.5M647.5 128V328M647.5 328V368M647.5 328H687.5M647.5 368V408M647.5 368H687.5M647.5 408V448M647.5 408H687.5M647.5 448V488M647.5 448H687.5M647.5 488V528M647.5 488H687.5M647.5 528V568M647.5 528H687.5M647.5 568V608M647.5 568H687.5M647.5 608V648M647.5 608H687.5M647.5 648V688M647.5 648H687.5M647.5 688V728M647.5 688H687.5M647.5 728V768M647.5 728H687.5M647.5 768V808M647.5 768H687.5M647.5 808H687.5M687.5 8V48M687.5 8H727.5M687.5 48V88M687.5 48H727.5M687.5 88V128M687.5 88H727.5M687.5 128H727.5M687.5 128V328M687.5 328V368M687.5 328H727.5M687.5 368V408M687.5 368H727.5M687.5 408V448M687.5 408H727.5M687.5 448V488M687.5 448H727.5M687.5 488V528M687.5 488H727.5M687.5 528V568M687.5 528H727.5M687.5 568V608M687.5 568H727.5M687.5 608V648M687.5 608H727.5M687.5 648V688M687.5 648H727.5M687.5 688V728M687.5 688H727.5M687.5 728V768M687.5 728H727.5M687.5 768V808M687.5 768H727.5M687.5 808H727.5M727.5 8V48M727.5 8H767.5M727.5 48V88M727.5 48H767.5M727.5 88V128M727.5 88H767.5M727.5 128H767.5M727.5 128V328M727.5 328V368M727.5 328H767.5M727.5 368V408M727.5 368H767.5M727.5 408V448M727.5 408H767.5M727.5 448V488M727.5 448H767.5M727.5 488V528M727.5 488H767.5M727.5 528V568M727.5 528H767.5M727.5 568V608M727.5 568H767.5M727.5 608V648M727.5 608H767.5M727.5 648V688M727.5 648H767.5M727.5 688V728M727.5 688H767.5M727.5 728V768M727.5 728H767.5M727.5 768V808M727.5 768H767.5M727.5 808H767.5M767.5 8V48M767.5 8H807.5M767.5 48V88M767.5 48H807.5M767.5 88V128M767.5 88H807.5M767.5 128H807.5M767.5 128V328M767.5 328V368M767.5 328H807.5M767.5 368V408M767.5 368H807.5M767.5 408V448M767.5 408H807.5M767.5 448V488M767.5 448H807.5M767.5 488V528M767.5 488H807.5M767.5 528V568M767.5 528H807.5M767.5 568V608M767.5 568H807.5M767.5 608V648M767.5 608H807.5M767.5 648V688M767.5 648H807.5M767.5 688V728M767.5 688H807.5M767.5 728V768M767.5 728H807.5M767.5 768V808M767.5 768H807.5M767.5 808H807.5M807.5 8V48M807.5 8H847.5M807.5 48V88M807.5 48H847.5M807.5 88V128M807.5 88H847.5M807.5 128H847.5M807.5 128V328M807.5 328V368M807.5 328H847.5M807.5 368V408M807.5 368H847.5M807.5 408V448M807.5 408H847.5M807.5 448V488M807.5 448H847.5M807.5 488V528M807.5 488H847.5M807.5 528V568M807.5 528H847.5M807.5 568V608M807.5 568H847.5M807.5 608V648M807.5 608H847.5M807.5 648V688M807.5 648H847.5M807.5 688V728M807.5 688H847.5M807.5 728V768M807.5 728H847.5M807.5 768V808M807.5 768H847.5M807.5 808H847.5M847.5 8V48M847.5 8H887.5M847.5 48H887.5M847.5 48V88M847.5 88V128M847.5 88H887.5M847.5 128H887.5M847.5 128V328M847.5 328V368M847.5 328H887.5M847.5 368V408M847.5 368H887.5M847.5 408V448M847.5 408H887.5M847.5 448V488M847.5 448H887.5M847.5 488V528M847.5 488H887.5M847.5 528V568M847.5 528H887.5M847.5 568V608M847.5 568H887.5M847.5 608V648M847.5 608H887.5M847.5 648V688M847.5 648H887.5M847.5 688V728M847.5 688H887.5M847.5 728V768M847.5 728H887.5M847.5 768V808M847.5 768H887.5M847.5 808H887.5M887.5 8V48M887.5 8H927.5M887.5 48H927.5M887.5 48V88M887.5 88V128M887.5 88H927.5M887.5 128H927.5M887.5 128V328M887.5 328V368M887.5 328H927.5M887.5 368V408M887.5 368H927.5M887.5 408V448M887.5 408H927.5M887.5 448V488M887.5 448H927.5M887.5 488V528M887.5 488H927.5M887.5 528V568M887.5 528H927.5M887.5 568V608M887.5 568H927.5M887.5 608V648M887.5 608H927.5M887.5 648V688M887.5 648H927.5M887.5 688V728M887.5 688H927.5M887.5 728V768M887.5 728H927.5M887.5 768V808M887.5 768H927.5M887.5 808H927.5M927.5 8V48M927.5 8H967.5M927.5 48H967.5M927.5 48V88M927.5 88V128M927.5 88H967.5M927.5 128H967.5M927.5 128V328M927.5 328V368M927.5 328H967.5M927.5 368V408M927.5 368H967.5M927.5 408V448M927.5 408H967.5M927.5 448V488M927.5 448H967.5M927.5 488V528M927.5 488H967.5M927.5 528V568M927.5 528H967.5M927.5 568V608M927.5 568H967.5M927.5 608V648M927.5 608H967.5M927.5 648V688M927.5 648H967.5M927.5 688V728M927.5 688H967.5M927.5 728V768M927.5 728H967.5M927.5 768V808M927.5 768H967.5M927.5 808H967.5M967.5 8V48M967.5 8H1007.5M967.5 48H1007.5M967.5 48V88M967.5 88V128M967.5 88H1007.5M967.5 128H1007.5M967.5 128V328M967.5 328V368M967.5 328H1007.5M967.5 368V408M967.5 368H1007.5M967.5 408V448M967.5 408H1007.5M967.5 448V488M967.5 448H1007.5M967.5 488V528M967.5 488H1007.5M967.5 528V568M967.5 528H1007.5M967.5 568V608M967.5 568H1007.5M967.5 608V648M967.5 608H1007.5M967.5 648V688M967.5 648H1007.5M967.5 688V728M967.5 688H1007.5M967.5 728V768M967.5 728H1007.5M967.5 768V808M967.5 768H1007.5M967.5 808H1007.5M1007.5 8V48M1007.5 8H1047.5M1007.5 48V88M1007.5 48H1047.5M1007.5 88V128M1007.5 88H1047.5M1007.5 128H1047.5M1007.5 128V328M1007.5 328V368M1007.5 328H1047.5M1007.5 368V408M1007.5 368H1047.5M1007.5 408V448M1007.5 408H1047.5M1007.5 448V488M1007.5 448H1047.5M1007.5 488V528M1007.5 488H1047.5M1007.5 528V568M1007.5 528H1047.5M1007.5 568V608M1007.5 568H1047.5M1007.5 608V648M1007.5 608H1047.5M1007.5 648V688M1007.5 648H1047.5M1007.5 688V728M1007.5 688H1047.5M1007.5 728V768M1007.5 728H1047.5M1007.5 768V808M1007.5 768H1047.5M1007.5 808H1047.5M1047.5 8V48M1047.5 8H1087.5M1047.5 48V88M1047.5 48H1087.5M1047.5 88V128M1047.5 88H1087.5M1047.5 128H1087.5M1047.5 128V328M1047.5 328V368M1047.5 328H1087.5M1047.5 368V408M1047.5 368H1087.5M1047.5 408V448M1047.5 408H1087.5M1047.5 448V488M1047.5 448H1087.5M1047.5 488V528M1047.5 488H1087.5M1047.5 528V568M1047.5 528H1087.5M1047.5 568V608M1047.5 568H1087.5M1047.5 608V648M1047.5 608H1087.5M1047.5 648V688M1047.5 648H1087.5M1047.5 688V728M1047.5 688H1087.5M1047.5 728V768M1047.5 728H1087.5M1047.5 768V808M1047.5 768H1087.5M1047.5 808H1087.5M1087.5 8V48M1087.5 8H1127.5M1087.5 48V88M1087.5 48H1127.5M1087.5 88V128M1087.5 88H1127.5M1087.5 128H1127.5M1087.5 128V328M1087.5 328V368M1087.5 328H1127.5M1087.5 368V408M1087.5 368H1127.5M1087.5 408V448M1087.5 408H1127.5M1087.5 448V488M1087.5 448H1127.5M1087.5 488V528M1087.5 488H1127.5M1087.5 528V568M1087.5 528H1127.5M1087.5 568V608M1087.5 568H1127.5M1087.5 608V648M1087.5 608H1127.5M1087.5 648V688M1087.5 648H1127.5M1087.5 688V728M1087.5 688H1127.5M1087.5 728V768M1087.5 728H1127.5M1087.5 768V808M1087.5 768H1127.5M1087.5 808H1127.5M1127.5 8V48M1127.5 8H1167.5M1127.5 48V88M1127.5 48H1167.5M1127.5 88V128M1127.5 88H1167.5M1127.5 128H1167.5M1127.5 128V328M1127.5 328V368M1127.5 328H1167.5M1127.5 368V408M1127.5 368H1167.5M1127.5 408V448M1127.5 408H1167.5M1127.5 448V488M1127.5 448H1167.5M1127.5 488V528M1127.5 488H1167.5M1127.5 528V568M1127.5 528H1167.5M1127.5 568V608M1127.5 568H1167.5M1127.5 608V648M1127.5 608H1167.5M1127.5 648V688M1127.5 648H1167.5M1127.5 688V728M1127.5 688H1167.5M1127.5 728V768M1127.5 728H1167.5M1127.5 768V808M1127.5 768H1167.5M1127.5 808H1167.5M1167.5 8V48M1167.5 8H1207.5M1167.5 48V88M1167.5 48H1207.5M1167.5 88V128M1167.5 88H1207.5M1167.5 128H1207.5M1167.5 128V328M1167.5 328V368M1167.5 328H1207.5M1167.5 368V408M1167.5 368H1207.5M1167.5 408V448M1167.5 408H1207.5M1167.5 448V488M1167.5 448H1207.5M1167.5 488V528M1167.5 488H1207.5M1167.5 528V568M1167.5 528H1207.5M1167.5 568V608M1167.5 568H1207.5M1167.5 608V648M1167.5 608H1207.5M1167.5 648V688M1167.5 648H1207.5M1167.5 688V728M1167.5 688H1207.5M1167.5 728V768M1167.5 728H1207.5M1167.5 768V808M1167.5 768H1207.5M1167.5 808H1207.5M1207.5 8V48M1207.5 8H1247.5M1207.5 48V88M1207.5 48H1247.5M1207.5 88V128M1207.5 88H1247.5M1207.5 128H1247.5M1207.5 128V248M1207.5 248V288M1207.5 248H1247.5M1207.5 288V328M1207.5 288H1247.5M1207.5 328V368M1207.5 328H1247.5M1207.5 368V408M1207.5 368H1247.5M1207.5 408V448M1207.5 408H1247.5M1207.5 448V488M1207.5 448H1247.5M1207.5 488V528M1207.5 488H1247.5M1207.5 528V568M1207.5 528H1247.5M1207.5 568V608M1207.5 568H1247.5M1207.5 608V648M1207.5 608H1247.5M1207.5 648V688M1207.5 648H1247.5M1207.5 688V728M1207.5 688H1247.5M1207.5 728V768M1207.5 728H1247.5M1207.5 768V808M1207.5 768H1247.5M1207.5 808H1247.5M1247.5 8V48M1247.5 8H1287.5M1247.5 48V88M1247.5 48H1287.5M1247.5 88V128M1247.5 88H1287.5M1247.5 128H1287.5M1247.5 128V248M1247.5 248V288M1247.5 248H1287.5M1247.5 288V328M1247.5 288H1287.5M1247.5 328V368M1247.5 328H1287.5M1247.5 368V408M1247.5 368H1287.5M1247.5 408V448M1247.5 408H1287.5M1247.5 448V488M1247.5 448H1287.5M1247.5 488V528M1247.5 488H1287.5M1247.5 528V568M1247.5 528H1287.5M1247.5 568V608M1247.5 568H1287.5M1247.5 608V648M1247.5 608H1287.5M1247.5 648V688M1247.5 648H1287.5M1247.5 688V728M1247.5 688H1287.5M1247.5 728V768M1247.5 728H1287.5M1247.5 768V808M1247.5 768H1287.5M1247.5 808H1287.5M1287.5 8V48M1287.5 8H1327.5M1287.5 48V88M1287.5 48H1327.5M1287.5 88V128M1287.5 88H1327.5M1287.5 128H1327.5M1287.5 128V248M1287.5 248V288M1287.5 248H1327.5M1287.5 288V328M1287.5 288H1327.5M1287.5 328V368M1287.5 328H1327.5M1287.5 368V408M1287.5 368H1327.5M1287.5 408V448M1287.5 408H1327.5M1287.5 448V488M1287.5 448H1327.5M1287.5 488V528M1287.5 488H1327.5M1287.5 528V568M1287.5 528H1327.5M1287.5 568V608M1287.5 568H1327.5M1287.5 608V648M1287.5 608H1327.5M1287.5 648V688M1287.5 648H1327.5M1287.5 688V728M1287.5 688H1327.5M1287.5 728V768M1287.5 728H1327.5M1287.5 768V808M1287.5 768H1327.5M1287.5 808H1327.5M1327.5 8V48M1327.5 8H1367.5M1327.5 48V88M1327.5 48H1367.5M1327.5 88V128M1327.5 88H1367.5M1327.5 128V168M1327.5 128H1367.5M1327.5 168V208M1327.5 168H1367.5M1327.5 208V248M1327.5 208H1367.5M1327.5 248V288M1327.5 248H1367.5M1327.5 288V328M1327.5 288H1367.5M1327.5 328V368M1327.5 328H1367.5M1327.5 368V408M1327.5 368H1367.5M1327.5 408V448M1327.5 408H1367.5M1327.5 448V488M1327.5 448H1367.5M1327.5 488V528M1327.5 488H1367.5M1327.5 528V568M1327.5 528H1367.5M1327.5 568V608M1327.5 568H1367.5M1327.5 608V648M1327.5 608H1367.5M1327.5 648V688M1327.5 648H1367.5M1327.5 688V728M1327.5 688H1367.5M1327.5 728V768M1327.5 728H1367.5M1327.5 768V808M1327.5 768H1367.5M1327.5 808H1367.5M1367.5 8V48M1367.5 8H1407.5M1367.5 48V88M1367.5 48H1407.5M1367.5 88V128M1367.5 88H1407.5M1367.5 128V168M1367.5 128H1407.5M1367.5 168V208M1367.5 168H1407.5M1367.5 208V248M1367.5 208H1407.5M1367.5 248V288M1367.5 248H1407.5M1367.5 288V328M1367.5 288H1407.5M1367.5 328V368M1367.5 328H1407.5M1367.5 368V408M1367.5 368H1407.5M1367.5 408V448M1367.5 408H1407.5M1367.5 448V488M1367.5 448H1407.5M1367.5 488V528M1367.5 488H1407.5M1367.5 528V568M1367.5 528H1407.5M1367.5 568V608M1367.5 568H1407.5M1367.5 608V648M1367.5 608H1407.5M1367.5 648V688M1367.5 648H1407.5M1367.5 688V728M1367.5 688H1407.5M1367.5 728V768M1367.5 728H1407.5M1367.5 768V808M1367.5 768H1407.5M1367.5 808H1407.5M1407.5 8V48M1407.5 8H1447.5M1407.5 48V88M1407.5 48H1447.5M1407.5 88V128M1407.5 88H1447.5M1407.5 128V168M1407.5 128H1447.5M1407.5 168V208M1407.5 168H1447.5M1407.5 208V248M1407.5 208H1447.5M1407.5 248V288M1407.5 248H1447.5M1407.5 288V328M1407.5 288H1447.5M1407.5 328V368M1407.5 328H1447.5M1407.5 368V408M1407.5 368H1447.5M1407.5 408V448M1407.5 408H1447.5M1407.5 448V488M1407.5 448H1447.5M1407.5 488V528M1407.5 488H1447.5M1407.5 528V568M1407.5 528H1447.5M1407.5 568V608M1407.5 568H1447.5M1407.5 608V648M1407.5 608H1447.5M1407.5 648V688M1407.5 648H1447.5M1407.5 688V728M1407.5 688H1447.5M1407.5 728V768M1407.5 728H1447.5M1407.5 768V808M1407.5 768H1447.5M1407.5 808H1447.5M1447.5 8V48M1447.5 8H1487.5M1447.5 48V88M1447.5 48H1487.5M1447.5 88V128M1447.5 88H1487.5M1447.5 128V168M1447.5 128H1487.5M1447.5 168V208M1447.5 168H1487.5M1447.5 208V248M1447.5 208H1487.5M1447.5 248V288M1447.5 248H1487.5M1447.5 288V328M1447.5 288H1487.5M1447.5 328V368M1447.5 328H1487.5M1447.5 368V408M1447.5 368H1487.5M1447.5 408V448M1447.5 408H1487.5M1447.5 448V488M1447.5 448H1487.5M1447.5 488V528M1447.5 488H1487.5M1447.5 528V568M1447.5 528H1487.5M1447.5 568V608M1447.5 568H1487.5M1447.5 608V648M1447.5 608H1487.5M1447.5 648V688M1447.5 648H1487.5M1447.5 688V728M1447.5 688H1487.5M1447.5 728V768M1447.5 728H1487.5M1447.5 768V808M1447.5 768H1487.5M1447.5 808H1487.5M1487.5 8V48M1487.5 8H1527.5M1487.5 48V88M1487.5 48H1527.5M1487.5 88V128M1487.5 88H1527.5M1487.5 128V168M1487.5 128H1527.5M1487.5 168V208M1487.5 168H1527.5M1487.5 208V248M1487.5 208H1527.5M1487.5 248V288M1487.5 248H1527.5M1487.5 288H1527.5M1487.5 288V328M1487.5 328V368M1487.5 328H1527.5M1487.5 368V408M1487.5 368H1527.5M1487.5 408V448M1487.5 408H1527.5M1487.5 448V488M1487.5 448H1527.5M1487.5 488V528M1487.5 488H1527.5M1487.5 528V568M1487.5 528H1527.5M1487.5 568V608M1487.5 568H1527.5M1487.5 608V648M1487.5 608H1527.5M1487.5 648V688M1487.5 648H1527.5M1487.5 688V728M1487.5 688H1527.5M1487.5 728V768M1487.5 728H1527.5M1487.5 768V808M1487.5 768H1527.5M1487.5 808H1527.5M1527.5 8V48M1527.5 8H1567.5M1527.5 48V88M1527.5 48H1567.5M1527.5 88V128M1527.5 88H1567.5M1527.5 128V168M1527.5 128H1567.5M1527.5 168V208M1527.5 168H1567.5M1527.5 208V248M1527.5 208H1567.5M1527.5 248V288M1527.5 248H1567.5M1527.5 288V328M1527.5 288H1567.5M1527.5 328V368M1527.5 328H1567.5M1527.5 368V408M1527.5 368H1567.5M1527.5 408V448M1527.5 408H1567.5M1527.5 448V488M1527.5 448H1567.5M1527.5 488V528M1527.5 488H1567.5M1527.5 528V568M1527.5 528H1567.5M1527.5 568V608M1527.5 568H1567.5M1527.5 608V648M1527.5 608H1567.5M1527.5 648V688M1527.5 648H1567.5M1527.5 688V728M1527.5 688H1567.5M1527.5 728V768M1527.5 728H1567.5M1527.5 768V808M1527.5 768H1567.5M1527.5 808H1567.5M1567.5 8V48M1567.5 8H1607.5M1567.5 48V88M1567.5 48H1607.5M1567.5 88V128M1567.5 88H1607.5M1567.5 128V168M1567.5 128H1607.5M1567.5 168V208M1567.5 168H1607.5M1567.5 208V248M1567.5 208H1607.5M1567.5 248V288M1567.5 248H1607.5M1567.5 288V328M1567.5 288H1607.5M1567.5 328V368M1567.5 328H1607.5M1567.5 368V408M1567.5 368H1607.5M1567.5 408V448M1567.5 408H1607.5M1567.5 448V488M1567.5 448H1607.5M1567.5 488V528M1567.5 488H1607.5M1567.5 528V568M1567.5 528H1607.5M1567.5 568V608M1567.5 568H1607.5M1567.5 608V648M1567.5 608H1607.5M1567.5 648V688M1567.5 648H1607.5M1567.5 688V728M1567.5 688H1607.5M1567.5 728V768M1567.5 728H1607.5M1567.5 768V808M1567.5 768H1607.5M1567.5 808H1607.5M1607.5 8V48M1607.5 8H1647.5M1607.5 48V88M1607.5 48H1647.5M1607.5 88V128M1607.5 88H1647.5M1607.5 128V168M1607.5 128H1647.5M1607.5 168V208M1607.5 168H1647.5M1607.5 208V248M1607.5 208H1647.5M1607.5 248V288M1607.5 248H1647.5M1607.5 288V328M1607.5 288H1647.5M1607.5 328V368M1607.5 328H1647.5M1607.5 368V408M1607.5 368H1647.5M1607.5 408V448M1607.5 408H1647.5M1607.5 448V488M1607.5 448H1647.5M1607.5 488V528M1607.5 488H1647.5M1607.5 528V568M1607.5 528H1647.5M1607.5 568V608M1607.5 568H1647.5M1607.5 608V648M1607.5 608H1647.5M1607.5 648V688M1607.5 648H1647.5M1607.5 688V728M1607.5 688H1647.5M1607.5 728V768M1607.5 728H1647.5M1607.5 768V808M1607.5 768H1647.5M1607.5 808H1647.5M1647.5 8V48M1647.5 8H1687.5M1647.5 48V88M1647.5 48H1687.5M1647.5 88V128M1647.5 88H1687.5M1647.5 128V168M1647.5 128H1687.5M1647.5 168V208M1647.5 168H1687.5M1647.5 208V248M1647.5 208H1687.5M1647.5 248V288M1647.5 248H1687.5M1647.5 288V328M1647.5 288H1687.5M1647.5 328V368M1647.5 328H1687.5M1647.5 368V408M1647.5 368H1687.5M1647.5 408V448M1647.5 408H1687.5M1647.5 448V488M1647.5 448H1687.5M1647.5 488V528M1647.5 488H1687.5M1647.5 528V568M1647.5 528H1687.5M1647.5 568V608M1647.5 568H1687.5M1647.5 608V648M1647.5 608H1687.5M1647.5 648V688M1647.5 648H1687.5M1647.5 688V728M1647.5 688H1687.5M1647.5 728V768M1647.5 728H1687.5M1647.5 768V808M1647.5 768H1687.5M1647.5 808H1687.5M1687.5 8V48M1687.5 8H1727.5M1687.5 48V88M1687.5 48H1727.5M1687.5 88V128M1687.5 88H1727.5M1687.5 128V168M1687.5 128H1727.5M1687.5 168V208M1687.5 168H1727.5M1687.5 208V248M1687.5 208H1727.5M1687.5 248V288M1687.5 248H1727.5M1687.5 288V328M1687.5 288H1727.5M1687.5 328V368M1687.5 328H1727.5M1687.5 368V408M1687.5 368H1727.5M1687.5 408V448M1687.5 408H1727.5M1687.5 448V488M1687.5 448H1727.5M1687.5 488V528M1687.5 488H1727.5M1687.5 528V568M1687.5 528H1727.5M1687.5 568V608M1687.5 568H1727.5M1687.5 608V648M1687.5 608H1727.5M1687.5 648V688M1687.5 648H1727.5M1687.5 688V728M1687.5 688H1727.5M1687.5 728V768M1687.5 728H1727.5M1687.5 768V808M1687.5 768H1727.5M1687.5 808H1727.5M1727.5 8V48M1727.5 8H1767.5V48M1727.5 48V88M1727.5 48H1767.5M1727.5 88V128M1727.5 88H1767.5M1727.5 128V168M1727.5 128H1767.5M1727.5 168V208M1727.5 168H1767.5M1727.5 208V248M1727.5 208H1767.5M1727.5 248V288M1727.5 248H1767.5M1727.5 288V328M1727.5 288H1767.5M1727.5 328V368M1727.5 328H1767.5M1727.5 368V408M1727.5 368H1767.5M1727.5 408V448M1727.5 408H1767.5M1727.5 448V488M1727.5 448H1767.5M1727.5 488V528M1727.5 488H1767.5M1727.5 528V568M1727.5 528H1767.5M1727.5 568V608M1727.5 568H1767.5M1727.5 608V648M1727.5 608H1767.5M1727.5 648V688M1727.5 648H1767.5M1727.5 688V728M1727.5 688H1767.5M1727.5 728V768M1727.5 728H1767.5M1727.5 768V808M1727.5 768H1767.5M1727.5 808H1767.5V768M1767.5 48V88M1767.5 88V128M1767.5 128V168M1767.5 168V208M1767.5 208V248M1767.5 248V288M1767.5 288V328M1767.5 328V368M1767.5 368V408M1767.5 408V448M1767.5 448V488M1767.5 488V528M1767.5 528V568M1767.5 568V608M1767.5 608V648M1767.5 648V688M1767.5 688V728M1767.5 728V768" stroke="url(#paint0_linear_720_8315)"/>
<rect x="367" y="248" width="40" height="40" fill="white" fill-opacity="0.02"/>
<rect x="288" y="328" width="40" height="40" fill="white" fill-opacity="0.02"/>
<rect width="40" height="40" transform="matrix(-1 0 0 1 1407 248)" fill="white" fill-opacity="0.02"/>
<rect width="40" height="40" transform="matrix(-1 0 0 1 1247 328)" fill="white" fill-opacity="0.02"/>
<rect width="40" height="40" transform="matrix(-1 0 0 1 567 328)" fill="white" fill-opacity="0.02"/>
<rect width="40" height="40" transform="matrix(-1 0 0 1 1488 328)" fill="white" fill-opacity="0.02"/>
<rect width="40" height="40" transform="matrix(-1 0 0 1 1448 488)" fill="white" fill-opacity="0.02"/>
<rect width="40" height="40" transform="matrix(-1 0 0 1 367 488)" fill="white" fill-opacity="0.02"/>
<rect width="40" height="40" transform="matrix(-1 0 0 1 1528 128)" fill="white" fill-opacity="0.02"/>
<rect width="40" height="40" transform="matrix(-1 0 0 1 288 128)" fill="white" fill-opacity="0.02"/>
<rect x="180" width="808" height="180" transform="rotate(90 180 0)" fill="url(#paint1_linear_720_8315)"/>
<rect width="808" height="180" transform="matrix(4.37114e-08 1 1 -4.37114e-08 1596 0)" fill="url(#paint2_linear_720_8315)"/>
<rect y="628" width="1776" height="180" fill="url(#paint3_linear_720_8315)"/>
<defs>
<linearGradient id="paint0_linear_720_8315" x1="887.5" y1="244" x2="887.5" y2="1004.5" gradientUnits="userSpaceOnUse">
<stop stop-color="white" stop-opacity="0.65"/>
<stop offset="1" stop-color="white" stop-opacity="0"/>
</linearGradient>
<linearGradient id="paint1_linear_720_8315" x1="584" y1="0" x2="584" y2="180" gradientUnits="userSpaceOnUse">
<stop stop-color="#060609" stop-opacity="0.32"/>
<stop offset="1" stop-color="#060609"/>
</linearGradient>
<linearGradient id="paint2_linear_720_8315" x1="404" y1="0" x2="404" y2="180" gradientUnits="userSpaceOnUse">
<stop stop-color="#060609" stop-opacity="0.32"/>
<stop offset="1" stop-color="#060609"/>
</linearGradient>
<linearGradient id="paint3_linear_720_8315" x1="888" y1="628" x2="888" y2="808" gradientUnits="userSpaceOnUse">
<stop stop-color="#060609" stop-opacity="0"/>
<stop offset="1" stop-color="#060609"/>
</linearGradient>
</defs>
</svg>
